<svg xmlns="http://www.w3.org/2000/svg" xmlns:xlink="http://www.w3.org/1999/xlink" id="woman" width="68" height="353">
  <defs>
    <path id="a" d="M.06.903h67.019V352.94H.06z"/>
    <path id="c" d="M.06.903h67.019V352.94H.06z"/>
  </defs>
  <g fill="none" fill-rule="evenodd">
    <path fill="#C36B30" fill-rule="nonzero" d="M11.711 9.717s.01-.681-.276-1.065c-.437-.585-.89-1.28-.834-2.873.144-4.117 3.909-4.116 3.909-4.116S11.202.795 9.488 3.324c-1.714 2.53-2.182 5.822 2.223 6.393"/>
    <path fill="#A96733" fill-rule="nonzero" d="M38.878 48.936s1.623 1.923 2.155 3.438c1.329 3.788-1.995 8.117-1.995 8.117s5.108-5.749 3.322-9.181c-1.786-3.436-6.581-5.851-5.145-13.934l-1.426-.428s-3.578 6.825-2.238 13.78c1.34 6.956.262 16.443-4.645 19.151 0 0 8.601-4.599 11.117-12.451 1.869-5.828-1.145-8.492-1.145-8.492"/>
    <path fill="#DA8474" fill-rule="nonzero" d="M37.016 38.658c-.404.183-1.135.353-1.852-.314-.031-.029-.078-.261-.078-.261l.455-4.18s1.152 1.502 2.501.559l-.701 3.906s-.126.2-.325.29"/>
    <path fill="#043843" fill-rule="nonzero" d="M44.294 313.851s.877 3.599 13.498 3.71c6.256.054 8.215-6.968 8.215-6.968s-4.375-9.493-10.301-7.957c-5.925 1.535-11.412 11.215-11.412 11.215"/>
    <path fill="#C2956D" fill-rule="nonzero" d="M54.572 293.527s7.378 6.953 8.09 10.839c.711 3.889-3.906 7.488-3.438 13.313.467 5.824-.846 17.676-6.284 21.867-2.395 1.848-3.264.652-3.264.652-.815-3.915 4.081-9.954 1.96-19.907-1.93-9.048-1.859-13.793-2.31-19.625-.452-5.831-3.099-11.184-3.099-11.184"/>
    <path fill="#907152" fill-rule="nonzero" d="M54.246 315.068s1.008 1.926 1.959 5.223c2.284 7.914-4.243 17.948-6.529 19.907 0 0 1.387 1.568 3.591.49 3.671-1.795 10.852-6.282 11.097-8.485.806-7.254-4.162-8.404-2.448-15.992.959-4.249-7.996-3.918-7.67-1.143"/>
    <mask id="b" fill="#fff">
      <use xlink:href="#a"/>
    </mask>
    <g fill-rule="nonzero" mask="url(#b)">
      <path fill="#6F5148" d="M61.522 302.113s-5.008-2.352-7.439 1.859c-2.793 4.839-1.469 9.791.489 11.504 1.959 1.714 4.897-.49 7.589 5.875l3.005-6.261s-2.429-.606-2.026-4.265c.709-6.437.341-6.998-1.618-8.712"/>
      <path fill="#907152" d="M62.161 321.351s-1.484-5.601 1.943-6.336c3.427-.735 2.953 4.622 2.953 4.622l-4.896 1.714M25.891 351.922s4.448-.136 6.406-2.583c1.959-2.448 1.224-8.323 2.937-9.547 1.714-1.224 4.652-7.098 4.652-7.098s-9.389-15.884-13.995 19.228"/>
      <path fill="#C2956D" d="M26.976 323.695s-6.514 19-13.029 23.885c-6.512 4.885 4.343 5.972 11.944 4.342 7.6-1.629 1.627-13.027 8.685-16.827 7.057-3.8 10.314-5.971 4.342-16.828"/>
      <path fill="#6F5148" d="M42.17 327.716s-6.445-.408-8.894 3.754c-2.447 4.16-2.447 9.546-2.447 9.546s4.405 1.469 4.161 11.505c0 0 4.161 1.467 5.875-.735 0 0-2.203-7.588-.979-12.728 1.223-5.142 3.263-5.956 2.284-11.342"/>
    </g>
    <path fill="#F5C4AA" fill-rule="nonzero" d="M43.925 125.16l4.934 4.753 1.546 4.417s-2.527-1.284-2.287-4.136c0 0-3.581-.786-5.756-3.247"/>
    <path fill="#F5C4AA" fill-rule="nonzero" d="M47.687 122.909c-3.123-.407-6.108 1.357-6.108 1.357 4.071.949 9.094-.679 8.686-1.493-.407-.814-8.502-2.145-8.502-2.145l-.997 5.81"/>
    <g fill-rule="nonzero">
      <path fill="#E6768F" d="M14.98 92.916s-5.701-1.356-8.684-8.141C3.188 77.709 9.822 65.64 9.822 65.64"/>
      <path fill="#F5C4AA" d="M18.528 56.633c-1.382-3.562 1.884-12.434.803-15.091-.768-1.894-.996-1.546-3.843-1.119-2.848.434-5.323 1.212-6.209.65-.961-.613-1.204-3.128-.995-3.653.208-.524.202-1.331-.433-1.467-.635-.137-.764-1.306-.764-1.306l.65-.811-.862-.848s.183-1.238.308-1.813c.124-.573-.287-1.55-1.108-1.928-.823-.378-1.554-1.763-1.554-1.763s2.199-2.529 3.537-4.548c1.339-2.018-2.491-5.718 2.921-12.614C15.637 4.391 23.982.286 32.582 4.15c6.697 3.007 5.528 8.662 6.826 15.321.369 1.89 5.536 2.987 5.503 5.198-.151 10.004-9.278 12.436-12.313 15.203-1.996 1.82-3.522 6.234-2.994 19.805l-11.076-3.044M41.851 173.12l-.95 8.687 3.192 3.298s4.342-1.086 6.513-15.742c2.173-14.657-9.088-48.899-9.088-48.899s.217-34.679 2.575-45.284c1.629-7.328-7.4-15.24-7.4-15.24s-1.386 19.965-1.22 20.763c1.629 7.871.497 39.925.497 39.925l11.109 40.592s.544 2.441-2.172 5.156.203 10.88.203 10.88l-1.302 4.339-1.446-1.014s2.199-5.229-.511-7.461"/>
      <path fill="#E6768F" d="M31.809 116.938c-2.449-10.263 1.663-27.119 6.106-37.049 0 0 .956-7.427 3.936-11.4 2.443-3.257-5.158-8.549-5.158-8.549-5.699-3.529-10.585-4.616-10.585-4.616s-15.199-5.156-22.527-2.712c-7.329 2.442 16.094 39.712 9.092 56.997-4.364 10.774-7.792 15.915-7.302 27.174 0 0 9.853-8.077 33.046-3.917 0 0-4.159-5.667-6.608-15.928"/>
    </g>
    <path fill="#065463" fill-rule="nonzero" d="M25.826 150.256l4.354 87.598 14.114 75.997s10.312-13.572 21.713-3.258c0 0-5.429-22.255-13.571-40.168-8.142-17.915-12.754-31.214-13.705-37.863 0 0-3.883-26.912 2.035-61.07 5.97-34.469-4.434-38.269-4.434-38.269"/>
    <path fill="none" stroke="#8A6F53" stroke-dasharray="1 .3" stroke-linejoin="round" stroke-width=".3" d="M44.03 311.374s9.854-13.512 21.253-3.196"/>
    <path fill="#00617A" fill-rule="nonzero" d="M5.568 134.826c6.426-5.324 17.117-9.404 32.7-2.55l2.089 2.981c4.48 7.329 5.627 9.904 3.665 18.729-.656 2.95-2.012 9.096-2.012 9.096.238-12.771-8.734-16.752-9.957-14.304-.49.979-2.43 4.784-4.316 5.615-3.889 1.715-1.628 28.5-.814 38.27.814 9.771 4.071 42.748 6.106 63.105 2.036 20.356 11.401 80.61 11.401 80.61s-4.479 7.328-12.621 6.922c-8.143-.407-11.4-5.293-11.4-5.293s4.885-72.469-.407-107.074c-5.292-34.606-15.426-94.639-15.426-94.639s-.142-.527.992-1.468"/>
    <path fill="none" stroke="#D9BA9B" stroke-dasharray="1 .3" stroke-linejoin="round" stroke-width=".3" d="M44.047 334.692s-4.096 6.893-12.238 6.487c-8.143-.408-11.016-4.896-11.016-4.896"/>
    <path fill="#8E6454" fill-rule="nonzero" d="M41.896 137.494l-3.05-4.565c-23.069-10.261-34.412 3.977-34.412 3.977l.757 4.496s.183.247.25.18c1.459-1.411 5.359-4.569 11.435-6.267 15.177-4.243 24.034 1.909 24.972 2.412l.048-.233"/>
    <path fill="#F5C4AA" fill-rule="nonzero" d="M39.271 120.329l6.785-5.022s-.951 5.7-6.921 6.786"/>
    <path fill="#FFFFFE" fill-rule="nonzero" d="M10.935 23.613s-.706.349-.605 3.162c0 0 .682.238 1.522.033.841-.205 1.092-.479 1.092-.479l-2.009-2.716"/>
    <path fill="#718C95" fill-rule="nonzero" d="M10.328 22.523s-1.231 1.764.002 4.252l.603-3.294-.605-.958"/>
    <path fill="#EB9381" fill-rule="nonzero" d="M8.044 32.882a27.32 27.32 0 0 1 1.324 1.257s-.793 2.011-1.517 1.814c-.626-.173-.764-1.306-.764-1.306l.209-.995-.421-.664s-.072-1.2 1.169-.106"/>
    <path fill="#C36B30" fill-rule="nonzero" d="M15.849 21.668s-1.226-2.785-2.815-3.709c-1.586-.922-3.528.749-3.528.749s-.163.791.81.745c.978-.047 1.59-1.257 2.566-.581.977.683 2.967 2.796 2.967 2.796"/>
    <path fill="#A96733" fill-rule="nonzero" d="M44.886 23.415a32.642 32.642 0 0 0-1.039-4.914c-.049 2.139-.457 5.296-1.9 9.412-1.991 5.688-6.62 8.962-9.313 10.449.333.172.488.523.359 1.179 3.359-2.643 11.771-5.27 11.918-14.872.007-.431-.015-.836-.025-1.254"/>
    <path fill="#C36B30" fill-rule="nonzero" d="M41.947 27.913c2.283-6.518 2.878-7.725 1.748-12.101-1.128-4.374-5.364-9.081-11.113-11.662-3.359-1.509-6.764-1.854-9.915-1.349 1.717 4.977-4.841 7.003-3.113 9.067 7.502 8.978-2.84 10.739-3.374 19.647 0 0 2.474-4.872 3.882-5.929 2.069-1.551 2.632-1.099 2.632-1.099s4.234 7.405 3.923 12.058c-.252 3.783 4.573 1.078 6.017 1.817 2.693-1.487 7.322-4.761 9.313-10.449"/>
    <path fill="#F5C4AA" fill-rule="nonzero" d="M22.388 26.325s1.092-2.403 4.251-1.295c3.159 1.107 1.681 8.542-4.577 10.516"/>
    <path fill="none" stroke="#A96733" stroke-width=".25" d="M22.388 26.325s1.092-2.403 4.251-1.295c3.159 1.107 1.681 8.542-4.577 10.516m1.473-8.344s2.532-1.508 2.579 1.113c.04 2.23-1.258 2.922-1.258 2.922"/>
    <path fill="#834534" fill-rule="nonzero" d="M11.027 22.445c-.553-.838-1.634-.379-1.634-.379s-.135 1.445-2.245-.75c0 0-.06 1.778 3.829 2.727 0 0 .607-.758.05-1.598"/>
    <path fill="#EB9381" fill-rule="nonzero" d="M13.568 26.716s-1.389-.725-2.383-2.45c-.992-1.728-1.792-2.199-1.792-2.199l.962-1.333s3.423 1.243 3.213 5.982"/>
    <path fill="#834534" fill-rule="nonzero" d="M13.595 26.743s-1.349-.655-2.197-1.921c-.845-1.265-2.001-2.546-2.001-2.546s-.115-.579.497-.305c.611.273 1.093.6 1.989 2.282.896 1.68 1.712 2.49 1.712 2.49"/>
    <mask id="d" fill="#fff">
      <use xlink:href="#c"/>
    </mask>
    <g fill-rule="nonzero" mask="url(#d)">
      <path fill="#C36B30" d="M20.342 12.461s1.168 8.717-3.279 12.62c0 0 5.264-3.651 5.208-10.468"/>
      <path fill="#F5C4AA" d="M1.682 53.289c-4.286 1.429 1.22 7.871-.815 27.414-1.568 15.045 2.035 37.456 2.035 37.456s12.614 4.377 18.864 5.428c6.252 1.052 18.728 1.493 18.728 1.493l-1.086-2.986s-14.929-5.564-24.97-8.006c-4.306-1.047-7.057-3.258-7.057-3.258l1.086-36.912s-.272-22.801-6.785-20.629"/>
      <path fill="#C36B30" d="M26.269 40.161s-5.36 9.661-16.915 17.022c-11.556 7.359-3.462 22.732-3.462 22.732s-3.879-9.314.029-14.39c0 0-2.443 12.983 4.531 16.927 0 0-3.859-10.126 1.439-16.8 5.297-6.677 10.164-5.762 12.188-11.691 0 0-2.368 9.451-7.293 11.25 0 0 6.818-1.488 9.973-9.567 3.156-8.078 1.604-11.91 1.968-16.246l-2.458.763"/>
    </g>
    <path fill="#F5C4AA" fill-rule="nonzero" d="M47.279 179.635l-3.392 10.993-1.493 7.734s-1.9-3.392 0-8.549 2.579-7.736 2.579-7.736"/>
    <path fill="#F5C4AA" fill-rule="nonzero" d="M45.177 183.909l-3.531 5.972-8.548-.137s3.391-3.664 7.328-1.898c0 0 .95-3.122 3.935-4.887l.816.95"/>
    <path fill="#00617A" fill-rule="nonzero" d="M9.676 131.97l1.304 6.283-1.467.816-1.305-6.284 1.468-.815M28.463 128.97l2.04 5.121 1.958.489-2.367-5.446-1.631-.164"/>
    <path fill="none" stroke="#D9BA9B" stroke-dasharray="1 .3" stroke-linejoin="round" stroke-width=".3" d="M12.959 141.679s6.12-4.161 11.994-3.916c0 0 1.225 6.12 1.225 8.812l-3.917 4.651-7.099-1.469-2.203-8.078zm10.526-3.916s1.117 6.262 1.117 8.33l-2.984 3.572-5.404-1.128-1.908-7.715 9.179-3.059zm-10.097 5.691s6.12-4.162 11.994-3.917l-11.994 3.917zm29.068-2.877s-3.183-2.203-4.896-2.692c0 0 1.224 4.162 1.468 6.609l3.428 4.161 1.713-2.203s-.245-3.835-1.713-5.875zm-3.769-2.22s1.004 3.411 1.205 5.418l2.809 3.413 1.404-1.807-5.418-7.024zm4.707 4.056s-3.019-2.283-5.325-3.058l5.325 3.058z"/>
    <path fill="#EB9381" fill-rule="nonzero" d="M30.526 36.503l-1.633 5.771s-.172.345-.264.206c-.361-.541-1.399-1.812-2.942-1.362-.134.04-.122-.549-.122-.549l1.724-4.949s1.922-1.046 3.237.883"/>
    <path fill="none" stroke="#D9BA9B" stroke-dasharray="1 .3" stroke-linejoin="round" stroke-width=".3" d="M5.493 143.026s8.339-9.172 25.172-8.037c7.262.49 11.75 3.833 11.75 3.833"/>
    <path fill="#065463" fill-rule="nonzero" d="M28.324 129.176l.139-.206 2.04 5.121-.185.163-1.994-5.078M9.676 131.97l.262.08 1.278 6.264-.236-.061-1.304-6.283"/>
    <path fill="none" stroke="#8A6F53" stroke-dasharray="1 .3" stroke-linejoin="round" stroke-width=".3" d="M33.488 148.035c-.657 2.198-1.607 4.417-2.578 5.475a297.54 297.54 0 0 1-4.243 4.489"/>
    <path fill="none" stroke="#D9BA9B" stroke-dasharray="1 .3" stroke-linejoin="round" stroke-width=".3" d="M32.461 135.234s1.631 5.466 1.876 7.669c.118 1.062-.238 3.088-.849 5.132"/>
    <path fill="none" stroke="#8A6F53" stroke-dasharray="1 .3" stroke-linejoin="round" stroke-width=".3" d="M29.931 154.408s1.061 53.445 1.387 68.785c.327 15.339 11.913 73.027 16.156 87.387"/>
    <path fill="none" stroke="#D9BA9B" stroke-dasharray="1 .3" stroke-linejoin="round" stroke-width=".3" d="M7.411 141.026S23.077 231.761 23.73 247.1c.653 15.34 1.957 93.67 1.957 93.67"/>
    <path fill="none" stroke="#C2956D" stroke-linecap="round" stroke-linejoin="round" stroke-width=".25" d="M43.895 128.264a253.201 253.201 0 0 0-2.377-7.8s.003-.693.017-1.916m-5.498 2.331l1.113 4.064"/>
    <path fill="#F5C4AA" fill-rule="nonzero" d="M45.819 124.005c-2.443.271-3.801 2.307-3.801 2.307 4.342 0 5.971-1.901 5.971-1.901s.273-.949-2.17-.406"/>
    <path fill="#F5C4AA" fill-rule="nonzero" d="M41.516 126.771s3.855-1.935 5.664-.844c1.807 1.089.228.921-1.814 1.147-2.041.227-3.85-.303-3.85-.303"/>
    <path fill="none" stroke="#C2956D" stroke-width=".25" d="M45.88 127.025c-.167.014-.339.031-.514.049-2.041.227-3.85-.303-3.85-.303s2.711-1.361 4.653-1.158m-2.26-.984c-1.229.691-1.891 1.683-1.891 1.683.135 0 .268-.003.398-.006"/>
    <path fill="#F5C4AA" fill-rule="nonzero" d="M47.687 122.909c-3.123-.407-6.108 1.357-6.108 1.357 2.168.505 4.606.279 6.349-.164"/>
    <path fill="none" stroke="#C2956D" stroke-width=".25" d="M47.687 122.909c-3.123-.407-6.108 1.357-6.108 1.357 2.168.505 4.606.279 6.349-.164"/>
    <g fill-rule="nonzero">
      <path fill="#C36B30" d="M15.856 8.99s2.619 3.069 0 4.062c0 0 2.889.001 1.354-3.79"/>
      <path fill="#C36B30" d="M23.264 3.195C29.275 5.1 34.456 6.579 37.085 7.281c.218.031.424.067.628.107-.478-.456-8.25-3.966-18.862-6.256-8.745-1.888-7.529 8.507-7.529 8.507s1.559-1.099 2.672-.951c.004-1.099.375-8.312 9.27-5.493"/>
      <path fill="#A96733" d="M16.543 9.241l.076.035c.861-.877 2.806-2.623 4.975-3.005 2.401-.424 7.379-.359 12.229.879 1.178-.041 2.291-.002 3.262.131-2.629-.702-7.81-2.181-13.821-4.086-8.895-2.819-9.266 4.394-9.27 5.493.754.099 1.666.284 2.612.6l.013-.012-.076-.035"/>
    </g>
    <path fill="#C36B30" fill-rule="nonzero" d="M21.594 6.271c-2.169.382-4.114 2.128-4.975 3.005.056.024.143.058.26.102.053.02.103.034.156.054 1.012.342 3.497.908 6.617-.323 2.653-1.045 6.697-1.84 10.171-1.959-4.85-1.238-9.828-1.303-12.229-.879"/>
    <path fill="#A96733" fill-rule="nonzero" d="M23.652 9.109c-3.12 1.231-5.605.665-6.617.323 1.494.565.56 2.954 1.941 4.205C23.85 18.06 30.81 8.143 37.731 7.452a53.29 53.29 0 0 1-.646-.171c-3.83-.527-9.883.431-13.433 1.828"/>
  </g>
</svg>
